<?xml version="1.0" encoding="utf-8"?>
<!-- Generator: Adobe Illustrator 24.1.2, SVG Export Plug-In . SVG Version: 6.00 Build 0)  -->
<svg version="1.1" id="Capa_1" xmlns="http://www.w3.org/2000/svg" xmlns:xlink="http://www.w3.org/1999/xlink" x="0px" y="0px"
	 viewBox="0 0 3462 719.3" style="enable-background:new 0 0 3462 719.3;" xml:space="preserve">
<style type="text/css">
	.st0{fill:#FFFFFF;}
</style>
<g>
	<path class="st0" d="M139.89,334.25c-36.55-32.13-46.28-73.95-46.28-110.19c0-25.38,7.87-69.53,43.73-102.35
		c26.85-24.68,62.34-39.58,118.02-39.58c23.08,0,36.94,1.55,54.08,3.73c14.2,1.94,26.19,5.19,37.32,6.36
		c4.19,0.31,5.66,2.25,5.66,4.5c0,2.95-1.16,7.45-1.82,20.57c-0.78,12.26-0.43,32.82-1.2,40.27c-0.35,5.59-1.09,8.61-4.43,8.61
		c-2.98,0-3.8-3.03-3.8-8.23c-0.31-11.56-5.2-24.68-14.51-34.37c-12.34-13.04-41.44-23.05-75.81-23.05
		c-32.48,0-53.78,8.15-70.19,23.05c-27.27,25.06-34.37,60.52-34.37,96.84c0,88.78,67.62,132.92,117.67,132.92
		c33.21,0,53.35-3.8,68.28-21.03c6.44-6.98,11.29-17.85,12.72-24.6c1.09-5.97,1.79-7.45,4.85-7.45c2.6,0,3.38,2.64,3.38,5.66
		c0,4.43-4.42,36.94-8.23,49.66c-1.86,6.29-3.33,8.15-9.77,10.79c-14.9,5.97-43.22,8.61-67.2,8.61
		C216.83,374.99,173.95,363.73,139.89,334.25"/>
	<path class="st0" d="M410.74,221.42c0-48.19,0-57.11-0.43-67.12c-0.78-10.86-4.04-14.66-11.18-16.92
		c-3.76-1.08-7.91-1.47-11.95-1.47c-3.34,0-5.2-0.7-5.2-3.72c0-1.86,2.56-2.64,7.84-2.64c12.26,0,34.68,0.78,43.99,0.78
		c8.23,0,29.53-0.78,42.21-0.78c4.11,0,6.75,0.78,6.75,2.64c0,3.02-1.86,3.72-5.27,3.72c-3.3,0-5.9,0.39-9.7,1.16
		c-8.92,1.47-11.56,5.97-12.34,17.23c-0.7,10.02-0.7,18.94-0.7,67.12v56.02c0,30.65,0,56.03,1.48,69.45
		c1.09,8.69,3.34,13.5,13.11,14.97c4.5,0.78,11.87,1.09,16.77,1.09c3.72,0,5.27,1.94,5.27,3.41c0,2.25-2.64,3.34-6.37,3.34
		c-21.68,0-44.07-1.08-52.99-1.08c-7.53,0-29.96,1.08-43.03,1.08c-4.15,0-6.32-1.08-6.32-3.34c0-1.47,1.16-3.41,5.28-3.41
		c4.89,0,8.53-0.31,11.56-1.09c6.75-1.47,8.58-5.97,9.62-15.36c1.59-13.04,1.59-38.41,1.59-69.07V221.42z"/>
	<path class="st0" d="M533.61,221.42c0-48.19,0.35-57.11-0.43-67.12c-0.66-11.25-3.69-14.27-14.16-17.23
		c-2.64-0.78-8.22-1.16-12.72-1.16c-3.73,0-5.67-1.08-5.67-3.33c0-2.25,2.32-3.03,7.22-3.03c17.54,0,39.61,0.78,49.31,0.78
		c8.18,0,30.18-0.78,42.17-0.78c4.89,0,7.06,0.78,7.06,3.03c0,2.25-1.9,3.33-5.2,3.33c-3.8,0-5.59,0.39-9.7,1.16
		c-8.61,1.47-11.25,5.97-11.87,17.23c-0.93,10.02-0.93,18.94-0.93,67.12v44.46c0,46.33,9,64.33,25.1,76.98
		c14.55,11.56,30.3,12.72,41.44,12.72c14.24,0,31.08-4.19,44.04-16.84c18.31-17.15,19.09-44.85,19.09-77.36v-39.96
		c0-48.19-0.38-57.11-0.77-67.12c-0.74-10.86-3.3-14.27-13.74-17.23c-2.64-0.78-8.22-1.16-12.03-1.16c-3.73,0-5.51-1.08-5.51-3.33
		c0-2.25,2.17-3.03,6.67-3.03c16.8,0,38.76,0.78,39.19,0.78c3.76,0,25.76-0.78,38.45-0.78c4.54,0,6.71,0.78,6.71,3.03
		c0,2.25-1.86,3.33-5.51,3.33c-3.72,0-5.59,0.39-9.77,1.16c-8.96,1.47-11.17,5.97-11.95,17.23c-0.39,10.02-0.78,18.94-0.78,67.12
		v33.99c0,35.53-3.72,72.86-31.35,95.67c-23.13,19.4-48.11,22.73-69.45,22.73c-17.15,0-51.18-0.7-75.04-21.65
		c-16.84-14.59-29.87-38.02-29.87-84.04V221.42z"/>
	<path class="st0" d="M853.31,256.65c0,33.53,0.38,57.81,0.7,64.17c0.39,7.84,1.16,19.01,3.73,22.35
		c4.11,6.05,17.3,12.72,42.99,12.72c29.84,0,51.87-5.2,71.7-21.65c21.34-17.53,28.01-46.01,28.01-78.83
		c0-40.28-16.06-66.42-30.65-79.15c-30.22-26.93-66.11-30.27-91.88-30.27c-6.75,0-17.53,0.78-20.17,2.25
		c-2.95,1.08-4.04,2.64-4.04,6.29c-0.38,10.86-0.38,37.01-0.38,62.08V256.65z M809.2,221.42c0-48.19,0-57.11-0.35-67.12
		c-0.73-10.86-3.72-14.27-14.2-17.23c-2.64-0.78-8.22-1.16-13.11-1.16c-3.3,0-5.59-1.08-5.59-3.33c0-2.25,2.64-3.03,7.53-3.03
		c17.15,0,38.1,0.78,47.37,0.78c10.16,0,33.64-0.78,53.43-0.78c41.09,0,96.37,0,132.22,36.24c16.41,16.45,31.04,42.99,31.04,80.7
		c0,39.96-17.19,70.23-35.93,88.46c-14.86,14.98-49.66,37.4-110.19,37.4c-11.87,0-26.15-1.16-39.11-1.86
		c-13.11-1.24-25.14-1.86-33.25-1.86c-3.84,0-10.9,0.31-18.74,0.31c-7.84,0.31-16.07,0.77-22.73,0.77c-4.11,0-6.37-1.08-6.37-3.34
		c0-1.47,1.09-3.41,5.2-3.41c4.89,0,8.61-0.31,11.64-1.09c6.72-1.47,8.5-7.45,9.62-16.76c1.51-13.42,1.51-38.56,1.51-67.67V221.42z"
		/>
	<path class="st0" d="M1189.07,272.25c1.44,0,1.79-0.78,1.44-1.86l-30.92-80.7c-0.39-1.09-0.82-2.95-1.51-2.95
		c-1.13,0-1.51,1.86-1.9,2.95l-31.7,80.31c-0.81,1.48,0,2.25,1.09,2.25H1189.07z M1118.85,289.78c-1.86,0-2.29,0.39-3.03,2.25
		l-17.53,42.6c-3.34,7.84-4.81,15.67-4.81,19.4c0,5.59,2.91,8.92,13.04,8.92h4.89c4.08,0,4.81,1.55,4.81,3.41
		c0,2.56-1.86,3.34-5.2,3.34c-10.79,0-26.15-1.08-36.63-1.08c-3.34,0-20.87,1.08-38.1,1.08c-4.07,0-5.94-0.78-5.94-3.34
		c0-1.86,1.05-3.41,3.77-3.41c2.94,0,6.71-0.31,9.62-0.31c14.98-2.25,20.56-11.95,27.31-28.01l85.9-199.81
		c3.77-9,6.37-12.73,9.7-12.73c4.89,0,6.36,3.03,9.7,10.09c7.84,17.54,62.7,147.51,83.65,195.7c12.72,28.79,22.04,32.82,27.93,33.99
		c4.97,0.78,8.69,1.09,12.38,1.09c2.99,0,4.54,1.24,4.54,3.41c0,2.56-1.9,3.34-14.2,3.34c-11.56,0-35.51,0-63.09-0.78
		c-6.02-0.31-9.78-0.31-9.78-2.56c0-1.86,0.78-2.95,4.11-3.41c2.25-0.31,4.5-3.34,2.99-7.07l-25.3-63.86
		c-0.89-1.86-1.94-2.25-3.45-2.25H1118.85z"/>
	<path class="st0" d="M1369.8,256.65c0,33.53,0.35,57.81,0.7,64.17c0.43,7.84,1.24,19.01,3.81,22.35
		c4.11,6.05,17.15,12.72,42.95,12.72c29.88,0,51.95-5.2,71.66-21.65c21.38-17.53,28.05-46.01,28.05-78.83
		c0-40.28-16.1-66.42-30.61-79.15c-30.23-26.93-66.11-30.27-91.91-30.27c-6.72,0-17.5,0.78-20.14,2.25
		c-2.95,1.08-4.15,2.64-4.15,6.29c-0.35,10.86-0.35,37.01-0.35,62.08V256.65z M1325.76,221.42c0-48.19,0-57.11-0.35-67.12
		c-0.81-10.86-3.8-14.27-14.2-17.23c-2.64-0.78-8.26-1.16-13.11-1.16c-3.34,0-5.59-1.08-5.59-3.33c0-2.25,2.64-3.03,7.45-3.03
		c17.23,0,38.1,0.78,47.45,0.78c10.04,0,33.64-0.78,53.35-0.78c41.12,0,96.37,0,132.27,36.24c16.44,16.45,30.99,42.99,30.99,80.7
		c0,39.96-17.19,70.23-35.85,88.46c-14.94,14.98-49.66,37.4-110.19,37.4c-11.95,0-26.15-1.16-39.27-1.86
		c-13.03-1.24-24.98-1.86-33.21-1.86c-3.72,0-10.78,0.31-18.7,0.31c-7.83,0.31-15.98,0.77-22.77,0.77c-4.08,0-6.25-1.08-6.25-3.34
		c0-1.47,1.08-3.41,5.16-3.41c4.84,0,8.57-0.31,11.59-1.09c6.75-1.47,8.54-7.45,9.7-16.76c1.51-13.42,1.51-38.56,1.51-67.67V221.42z
		"/>
	<path class="st0" d="M1760.19,88.95c1.18-6.36,3.35-9.75,6.32-9.75c3.05,0,5.31,1.83,10.11,11.5l101.92,210.55l101.4-213.07
		c2.96-6.01,4.87-8.97,8.19-8.97c3.39,0,5.66,3.66,6.7,11.5l34.02,230.67c3.32,23.44,7.06,34.32,18.25,37.63
		c10.8,3.4,18.3,3.75,23.17,3.75c3.35,0,5.93,0.35,5.93,2.61c0,2.96-4.44,4.1-9.71,4.1c-9.28,0-60.76-1.13-75.75-2.27
		c-8.53-0.7-10.8-1.83-10.8-4.1c0-1.83,1.48-2.96,4.13-4.09c2.22-0.7,3.35-5.58,1.87-16.03l-22.38-164.2h-1.48l-81.28,169.52
		c-8.63,17.51-10.54,20.82-13.85,20.82c-3.4,0-7.1-7.4-13.16-18.65c-8.88-17.16-38.33-74.22-42.86-84.76
		c-3.31-7.84-25.79-54.79-38.85-82.75h-1.39l-19.43,148.44c-0.78,6.71-1.18,11.58-1.18,17.51c0,7.14,4.93,10.54,11.29,12.02
		c6.62,1.48,11.89,1.83,15.68,1.83c2.88,0,5.49,0.78,5.49,2.61c0,3.31-3.31,4.1-8.98,4.1c-15.59,0-32.32-1.13-39.11-1.13
		c-7.15,0-25,1.13-36.94,1.13c-3.75,0-6.71-0.78-6.71-4.1c0-1.83,2.18-2.61,5.92-2.61c2.97,0,5.67,0,11.24-1.04
		c10.41-2.27,13.42-16.9,15.34-29.53L1760.19,88.95z"/>
	<path class="st0" d="M2188,272.15c1.48,0,1.87-0.78,1.48-1.92l-30.93-80.58c-0.3-1.13-0.82-2.96-1.52-2.96
		c-1.09,0-1.48,1.84-1.84,2.96l-31.71,80.23c-0.69,1.48,0,2.27,1.14,2.27H2188z M2117.83,289.66c-1.84,0-2.18,0.35-2.97,2.18
		l-17.6,42.51c-3.31,7.84-4.79,15.68-4.79,19.52c0,5.57,2.96,8.88,13.07,8.88h4.88c4.09,0,4.83,1.48,4.83,3.31
		c0,2.61-1.87,3.4-5.27,3.4c-10.76,0-26.14-1.13-36.58-1.13c-3.27,0-20.82,1.13-37.89,1.13c-4.19,0-6.14-0.79-6.14-3.4
		c0-1.83,1.17-3.31,3.88-3.31c2.87,0,6.62-0.35,9.67-0.35c14.9-2.27,20.47-11.93,27.22-28.05l85.8-199.57
		c3.7-8.97,6.32-12.72,9.63-12.72c4.97,0,6.4,3.05,9.67,10.11c7.93,17.59,62.72,147.39,83.71,195.56
		c12.63,28.66,22,32.85,27.88,33.98c4.88,0.7,8.67,1.05,12.37,1.05c2.96,0,4.44,1.13,4.44,3.31c0,2.61-1.83,3.4-14.15,3.4
		c-11.59,0-35.42,0-62.98-0.79c-6.06-0.35-9.76-0.35-9.76-2.61c0-1.83,0.74-2.96,4.05-3.31c2.35-0.35,4.57-3.31,3.05-7.06
		l-25.35-63.85c-0.78-1.84-1.87-2.18-3.44-2.18H2117.83z"/>
	<path class="st0" d="M2368.54,256.38c0,33.62,0.43,57.84,0.83,64.21c0.39,7.84,1.09,18.99,3.7,22.38
		c4.09,5.93,17.16,12.72,42.86,12.72c29.79,0,51.92-5.23,71.7-21.69c21.21-17.51,27.96-45.91,27.96-78.66
		c0-40.34-16.03-66.47-30.57-79.19c-30.23-26.83-66.08-30.14-91.73-30.14c-6.79,0-17.5,0.79-20.21,2.27
		c-3.05,1.04-4.1,2.53-4.1,6.27c-0.43,10.89-0.43,36.85-0.43,61.94V256.38z M2324.5,221.36c0-48.17,0-57.15-0.3-67.17
		c-0.78-10.8-3.75-14.2-14.2-17.16c-2.61-0.78-8.18-1.13-13.02-1.13c-3.35,0-5.67-1.13-5.67-3.4c0-2.27,2.66-2.96,7.45-2.96
		c17.2,0,38.07,0.7,47.43,0.7c10.1,0,33.54-0.7,53.36-0.7c41.03,0,96.3,0,132.06,36.24c16.46,16.38,31.01,42.86,31.01,80.49
		c0,39.98-17.16,70.21-35.84,88.42c-14.94,14.98-49.61,37.37-110.15,37.37c-11.85,0-26.05-1.04-39.03-1.83
		c-13.15-1.13-25.09-1.92-33.28-1.92c-3.7,0-10.8,0.35-18.64,0.35c-7.84,0.43-15.98,0.78-22.78,0.78c-4.14,0-6.32-1.13-6.32-3.4
		c0-1.39,1.13-3.31,5.23-3.31c4.87,0,8.53-0.35,11.58-1.05c6.71-1.57,8.62-7.58,9.67-16.9c1.43-13.42,1.43-38.33,1.43-67.43V221.36z
		"/>
	<path class="st0" d="M2588.41,221.36c0-48.17,0-57.15-0.43-67.17c-0.88-10.8-3.84-14.2-14.29-17.16c-2.53-0.78-8.1-1.13-12.98-1.13
		c-3.35,0-5.58-1.13-5.58-3.4c0-2.27,2.53-2.96,7.41-2.96c17.16,0,38.07,0.7,47.47,0.7c10.37,0,83.19,0.44,89.47,0
		c6.01-0.26,11.23-1.39,13.85-1.83c1.83-0.35,3.66-1.48,5.14-1.48c1.92,0,2.35,1.48,2.35,3.05c0,2.18-1.92,5.92-2.7,20.47
		c-0.35,3.4-1.13,17.17-1.83,20.91c-0.43,1.48-1.13,5.14-3.75,5.14c-2.26,0-2.61-1.39-2.61-4.1c0-2.27-0.43-7.84-2.18-11.5
		c-2.7-5.66-5.27-10.1-21.69-11.59c-5.62-0.78-44.78-1.48-51.49-1.48c-1.4,0-2.27,1.13-2.27,2.97v78.4c0,1.83,0.39,3.31,2.27,3.31
		c7.4,0,50,0,57.45-0.78c7.8-0.7,12.68-1.39,15.72-4.79c2.53-2.18,3.62-4.1,5.14-4.1c1.48,0,2.65,1.48,2.65,3.4
		c0,1.83-0.74,7.05-2.65,23.08c-0.78,6.36-1.53,18.99-1.53,21.25c0,2.62-0.31,7.15-3.35,7.15c-2.18,0-2.96-1.13-2.96-2.62
		c-0.35-3.4-0.35-7.49-1.09-11.58c-1.87-6.36-6.01-11.24-18.25-12.37c-6.01-0.7-43.38-1.49-51.48-1.49c-1.53,0-1.92,1.49-1.92,3.4
		v25.35c0,10.89-0.35,37.72,0,47.04c0.87,21.6,10.8,26.4,44.43,26.4c8.54,0,22.39-0.26,31.01-4.01c8.1-3.75,11.89-10.45,14.11-23.52
		c0.74-3.31,1.57-4.88,3.7-4.88c2.66,0,3.01,4.1,3.01,7.49c0,7.06-2.52,28.75-4.49,35.11c-2.22,8.19-5.18,8.19-17.51,8.19
		c-24.65,0-44.38-0.44-60.5-1.13c-16.03-0.43-28.31-0.78-37.98-0.78c-3.74,0-10.89,0.35-18.69,0.35
		c-7.84,0.43-16.03,0.78-22.78,0.78c-4.1,0-6.32-1.13-6.32-3.4c0-1.39,1.17-3.31,5.27-3.31c4.83,0,8.54-0.35,11.5-1.05
		c6.8-1.57,8.62-7.58,9.76-16.9c1.57-13.42,1.57-38.33,1.57-67.43V221.36z"/>
	<path class="st0" d="M3200.45,365.36c-5.23-2.27-6.32-3.66-6.32-10.89c0-17.08,1.53-36.85,1.87-42.07c0-4.88,1.48-8.27,4.18-8.27
		c2.96,0,3.22,3.05,3.22,5.31c0,4.09,1.13,10.8,3.05,16.38c7.06,23.52,31.71,31.36,52.27,31.36c28.27,0,45.47-17.94,45.47-40.33
		c0-13.85-3.4-27.53-32.5-44.69l-18.99-11.24c-38.85-22.82-51.52-43.99-51.52-72.04c0-38.77,37.32-63.77,82.84-63.77
		c21.21,0,38.07,2.96,46.69,5.14c2.92,0.7,4.44,1.92,4.44,4.1c0,4.27-1.18,13.15-1.18,38.07c0,6.71-1.39,10.11-4,10.11
		c-2.31,0-3.45-1.83-3.45-5.58c0-3.05-1.43-12.72-8.49-20.82c-4.88-6.01-15.33-14.98-36.59-14.98c-23.56,0-44.77,12.28-44.77,33.97
		c0,14.2,5.18,25.35,34.67,41.81l13.42,7.4c43.29,23.87,56.8,48.17,56.8,76.92c0,23.43-8.97,42.42-32.89,59.32
		c-15.72,11.15-37.32,13.06-54.88,13.06C3234.82,373.63,3214.65,371.72,3200.45,365.36"/>
	<path class="st0" d="M2808.79,246.8c0,3.48,0.61,4.79,2.79,5.66c6.71,2.27,16.12,3.14,24.05,3.14c12.58,0,16.72-1.22,22.43-5.32
		c9.37-6.97,18.6-21.43,18.6-47.3c0-44.78-29.66-57.75-48.3-57.75c-7.97,0-13.54,0.35-16.77,1.3c-2.18,0.53-2.79,1.92-2.79,4.45
		V246.8z M2838.76,270.84l-27.44-0.7c-1.57,0-2.53,0.7-2.53,2.53v4.35c0,29.45,0,54.27,1.57,67.6c0.96,9.06,2.78,16.03,12.33,17.25
		c4.7,0.7,11.63,1.22,15.46,1.22c2.44,0,3.75,0.96,3.75,2.53c0,2.26-2.18,3.22-6.27,3.22c-18.33,0-41.64-0.96-46.26-0.96
		c-6.1,0-25.96,0.96-38.55,0.96c-4.05,0-6.32-0.96-6.32-3.22c0-1.57,1.22-2.53,5.05-2.53c4.62,0,8.53-0.52,11.32-1.22
		c6.27-1.22,7.93-8.19,9.24-17.25c1.52-13.33,1.52-38.15,1.52-67.25v-55.49c0-48,0-56.71-0.65-66.9
		c-0.61-10.63-3.18-15.68-13.5-17.94c-2.53-0.61-7.93-0.88-12.33-0.88c-3.48,0-5.32-0.6-5.32-2.87c0-2.27,2.13-2.88,6.93-2.88
		c16.64,0,36.5,0.96,43.12,0.96c10.8,0,34.76-0.96,44.43-0.96c19.9,0,40.99,1.92,58.1,13.5c8.72,6.01,21.39,22.12,21.39,43.29
		c0,23.26-9.8,44.78-41.6,70.56c0,0,6.8,0.78,16.42,10.11c10.58,10.1,15.46,28.75,51.35,69.43c53.14,60.37,139.29-6.45,139.29-6.45
		s4.1-4.36,5.31-1.92c1.22,2.35-29.01,37.29-78.31,52.27c-65.07,19.6-110.2-33.72-128.23-65.86
		C2865.07,292.27,2855.14,271.62,2838.76,270.84"/>
	<path class="st0" d="M3083.55,270.84c1.48,0,1.87-1.05,1.48-2l-28.35-77.88c-0.35-1.22-0.66-2.79-1.48-2.79
		c-1.09,0-1.62,1.57-2.05,2.79l-29.01,77.62c-0.27,1.22,0,2.27,1.35,2.27H3083.55z M2972.26,340.36l81.84-204.19
		c3.79-9.23,5.75-12.63,8.8-12.63c2.88,0,4.75,2.79,7.97,10.1c7.54,17.34,58.06,145.91,78.18,193.83
		c12.02,28.4,21.08,32.84,27.7,34.41c4.8,0.96,9.58,1.22,13.24,1.22c2.53,0,4.14,0.43,4.14,2.53c0,2.62-2.83,3.22-14.59,3.22
		c-11.23,0-34.23,0-59.49-0.6c-5.67-0.35-9.5-0.35-9.5-2.62c0-1.83,1.26-2.53,4.44-2.79c2.22-0.61,4.44-3.4,2.79-7.24l-25.18-66.81
		c-0.7-1.65-1.66-2.27-3.22-2.27h-70.21c-1.65,0-2.26,0.61-2.87,2.53l-22.82,60.02"/>
	<path class="st0" d="M2468.88,593.98h-0.6l-38.34-56.22v85.09h-11.58V517.61h12.03l38.34,57.43l38.34-57.43h12.02v105.23h-11.88
		V537.6L2468.88,593.98z M2390.26,577.9c0,7.72-1.05,14.48-3.16,20.29c-2.1,5.81-5.09,10.67-8.94,14.58
		c-3.86,3.91-8.47,6.84-13.83,8.79c-5.36,1.96-11.35,2.93-17.97,2.93c-6.51,0-12.45-0.97-17.81-2.93
		c-5.36-1.95-9.98-4.86-13.83-8.72c-3.86-3.86-6.84-8.64-8.94-14.36c-2.11-5.72-3.16-12.28-3.16-19.7v-61.18h11.88v60.43
		c0,11.42,2.83,20.2,8.49,26.31c5.66,6.12,13.55,9.17,23.68,9.17c9.72,0,17.44-2.91,23.15-8.72c5.72-5.81,8.57-14.48,8.57-26.01
		v-61.18h11.88V577.9z M2273.45,622.84h-11.88V517.61h11.88V622.84z M2180.54,593.98h-0.6l-38.34-56.22v85.09h-11.58V517.61h12.03
		l38.34,57.43l38.34-57.43h12.03v105.23h-11.88V537.6L2180.54,593.98z M2105.37,528.43h-64.19v35.93h57.43v10.83h-57.43v36.83h64.95
		v10.82h-76.82V517.61h76.07V528.43z M1984.94,534.09c-4.72-3.67-11.35-5.51-19.9-5.51h-32.55v42.85h32.4
		c3.92,0,7.53-0.5,10.85-1.51c3.32-1.01,6.18-2.44,8.59-4.3c2.41-1.86,4.29-4.15,5.65-6.86c1.35-2.71,2.03-5.78,2.03-9.2
		C1992.02,542.91,1989.66,537.76,1984.94,534.09 M1993.07,622.84l-30.52-40.89h-30.06v40.89h-11.88V517.61h45.25
		c5.81,0,11.05,0.76,15.71,2.26c4.66,1.5,8.64,3.63,11.95,6.39c3.31,2.76,5.86,6.07,7.67,9.93c1.8,3.86,2.7,8.15,2.7,12.86
		c0,4.41-0.7,8.34-2.11,11.8c-1.4,3.46-3.38,6.47-5.94,9.02c-2.56,2.56-5.59,4.69-9.1,6.4c-3.51,1.7-7.32,2.91-11.43,3.61
		l32.32,42.96H1993.07z M1879.33,534.37c-5.18-3.86-12.04-5.79-20.58-5.79h-26.68v46.3h26.08c4.32,0,8.26-0.55,11.83-1.65
		c3.56-1.1,6.63-2.68,9.19-4.74c2.56-2.05,4.52-4.51,5.88-7.37c1.36-2.86,2.04-6.04,2.04-9.55
		C1887.09,543.97,1884.5,538.23,1879.33,534.37 M1895.66,566.17c-2.21,4.31-5.18,7.92-8.94,10.83c-3.76,2.91-8.15,5.09-13.15,6.54
		c-5.02,1.45-10.32,2.18-15.94,2.18h-25.56v37.13h-11.88V517.61h39.39c5.91,0,11.3,0.78,16.16,2.33c4.86,1.56,9.02,3.76,12.48,6.61
		s6.11,6.37,7.97,10.53c1.85,4.16,2.78,8.85,2.78,14.06C1898.97,556.85,1897.86,561.86,1895.66,566.17"/>
	<path class="st0" d="M1749.85,605.63c-1.89,4.06-4.53,7.47-7.91,10.22c-3.39,2.76-7.43,4.86-12.12,6.32
		c-4.7,1.45-9.9,2.18-15.61,2.18c-8.02,0-15.89-1.38-23.6-4.13c-7.72-2.75-14.73-6.99-21.05-12.7l13.68-16.39
		c4.81,3.91,9.75,7.02,14.81,9.32c5.06,2.3,10.6,3.46,16.61,3.46c4.81,0,8.55-0.87,11.2-2.63c2.65-1.76,3.99-4.18,3.99-7.29v-0.3
		c0-1.5-0.28-2.83-0.83-3.98c-0.55-1.15-1.61-2.23-3.17-3.23c-1.56-1-3.72-2-6.48-3.01c-2.76-1-6.35-2.05-10.77-3.16
		c-5.33-1.3-10.15-2.76-14.47-4.36c-4.32-1.6-7.99-3.58-11-5.94c-3.02-2.35-5.35-5.29-7.01-8.8c-1.66-3.51-2.49-7.87-2.49-13.08
		v-0.3c0-4.81,0.89-9.14,2.69-13c1.79-3.86,4.31-7.19,7.54-10c3.24-2.8,7.1-4.96,11.59-6.46c4.49-1.5,9.45-2.26,14.86-2.26
		c7.72,0,14.81,1.16,21.27,3.46c6.47,2.31,12.4,5.62,17.82,9.92l-12.03,17.44c-4.71-3.21-9.32-5.74-13.83-7.59
		c-4.51-1.85-9.02-2.78-13.53-2.78s-7.89,0.88-10.15,2.63c-2.25,1.76-3.38,3.94-3.38,6.54v0.3c0,1.7,0.32,3.18,0.98,4.43
		s1.83,2.38,3.54,3.38c1.71,1,4.05,1.95,7.01,2.86c2.97,0.9,6.71,1.95,11.23,3.16c5.32,1.4,10.07,2.98,14.24,4.74
		c4.17,1.76,7.69,3.86,10.55,6.31c2.86,2.46,5.02,5.34,6.48,8.64c1.46,3.31,2.19,7.27,2.19,11.88v0.3
		C1752.69,596.94,1751.75,601.57,1749.85,605.63 M1631.83,570.23c0-4.51-0.78-8.77-2.33-12.78c-1.56-4.01-3.76-7.52-6.62-10.52
		c-2.86-3.01-6.24-5.39-10.15-7.14c-3.91-1.75-8.17-2.63-12.78-2.63c-4.71,0-8.99,0.86-12.85,2.56c-3.86,1.7-7.17,4.06-9.92,7.07
		c-2.76,3.01-4.91,6.49-6.47,10.45c-1.55,3.96-2.33,8.19-2.33,12.7v0.3c0,4.51,0.78,8.77,2.33,12.78c1.55,4.01,3.76,7.52,6.62,10.52
		c2.86,3.01,6.21,5.39,10.07,7.14c3.86,1.76,8.14,2.63,12.85,2.63c4.61,0,8.87-0.85,12.78-2.56c3.91-1.7,7.24-4.06,9.99-7.07
		c2.75-3.01,4.91-6.49,6.47-10.45c1.55-3.96,2.33-8.19,2.33-12.7V570.23z M1651.82,591.35c-2.81,6.56-6.69,12.33-11.65,17.29
		s-10.88,8.87-17.74,11.72c-6.87,2.86-14.36,4.29-22.48,4.29c-8.12,0-15.58-1.43-22.4-4.29c-6.82-2.86-12.7-6.71-17.66-11.58
		c-4.96-4.86-8.82-10.57-11.58-17.14c-2.76-6.56-4.13-13.61-4.13-21.12v-0.3c0-7.52,1.4-14.55,4.21-21.12
		c2.8-6.56,6.69-12.33,11.65-17.29c4.96-4.96,10.88-8.87,17.74-11.72c6.86-2.86,14.36-4.29,22.48-4.29c8.12,0,15.58,1.43,22.4,4.29
		c6.81,2.86,12.7,6.72,17.66,11.58c4.96,4.86,8.82,10.57,11.58,17.14c2.75,6.56,4.13,13.61,4.13,21.12v0.3
		C1656.03,577.74,1654.62,584.79,1651.82,591.35 M1503.89,622.84l-50.96-66.9v66.9h-22.85V517.61h21.35l49.31,64.79v-64.79h22.85
		v105.23H1503.89z M1329.35,622.84V517.61h79.22v20.6h-56.38v21.35h49.61v20.6h-49.61v22.1h57.13v20.6H1329.35z M1285.01,553.54
		c0-5.01-1.61-8.77-4.81-11.28c-3.21-2.51-7.67-3.76-13.38-3.76h-23v30.22h23.45c5.71,0,10.1-1.35,13.15-4.06
		c3.05-2.71,4.59-6.32,4.59-10.83V553.54z M1284.55,622.84l-22.55-33.67h-18.19v33.67h-23.15V517.61h48.11
		c12.53,0,22.28,3.06,29.24,9.17c6.97,6.11,10.45,14.63,10.45,25.56v0.3c0,8.52-2.08,15.46-6.24,20.82
		c-4.16,5.36-9.6,9.3-16.31,11.8l25.7,37.58H1284.55z M1176.31,553.54c0-5.01-1.6-8.77-4.81-11.28c-3.21-2.51-7.67-3.76-13.38-3.76
		h-23v30.22h23.45c5.71,0,10.1-1.35,13.15-4.06c3.06-2.71,4.59-6.32,4.59-10.83V553.54z M1175.86,622.84l-22.55-33.67h-18.19v33.67
		h-23.15V517.61h48.11c12.53,0,22.28,3.06,29.24,9.17c6.97,6.11,10.45,14.63,10.45,25.56v0.3c0,8.52-2.08,15.46-6.24,20.82
		c-4.16,5.36-9.6,9.3-16.31,11.8l25.7,37.58H1175.86z M1011.25,622.84V517.61h79.23v20.6h-56.38v21.35h49.61v20.6h-49.61v22.1h57.13
		v20.6H1011.25z M961.49,538.96v83.89h-23.15v-83.89h-32.02v-21.35h87.19v21.35H961.49z"/>
</g>
</svg>
